<svg xmlns="http://www.w3.org/2000/svg" xmlns:xlink="http://www.w3.org/1999/xlink" viewBox="0,0,256,256" width="50px" height="50px" fill-rule="nonzero"><g fill="#000000" fill-rule="nonzero" stroke="none" stroke-width="1" stroke-linecap="butt" stroke-linejoin="miter" stroke-miterlimit="10" stroke-dasharray="" stroke-dashoffset="0" font-family="none" font-weight="none" font-size="none" text-anchor="none" style="mix-blend-mode: normal"><g transform="scale(5.12,5.12)"><path d="M25.3125,0c-2.48437,0 -4.57812,0.91406 -6.28125,2.75c-3.36719,3.62891 -4.21875,9.9375 -3.96875,13.28125c0.42578,5.73047 2.68359,11.08594 2.78125,11.3125c0.1875,0.4375 0.65625,0.69141 1.125,0.59375c0.04297,-0.00781 4.65234,-0.96094 6.78125,-0.8125c2.07422,0.15625 5.13281,0.91406 6.96875,1.75c0.13281,0.05859 0.29688,0.09375 0.4375,0.09375c0.13281,0 0.25,-0.03906 0.375,-0.09375c0.25781,-0.11328 0.46875,-0.32812 0.5625,-0.59375c0.07422,-0.21484 1.82031,-5.29297 1.90625,-9.6875c0.10547,-5.32422 -1.08984,-12.33203 -4.71875,-16.03125c-1.66016,-1.69531 -3.67969,-2.5625 -5.96875,-2.5625zM17.5,35.28125c-0.38281,0.05469 -0.70703,0.35156 -0.8125,0.75c-1.25,4.64063 -0.82031,8.80859 1.21875,11.46875c1.23438,1.60938 2.99219,2.5 4.90625,2.5c2.87891,0 5.19531,-0.86719 6.90625,-2.59375c2.70313,-2.72266 3.24219,-6.96484 3.21875,-10.03125c-0.00391,-0.28516 -0.12891,-0.5625 -0.34375,-0.75c-0.21484,-0.1875 -0.49609,-0.25391 -0.78125,-0.21875c-0.01953,0.00391 -2.05859,0.21875 -4.625,0.21875c-1.08594,0 -2.12109,-0.04297 -3.0625,-0.125c-2.89453,-0.25 -4.95312,-0.84375 -5.84375,-1.09375l-0.375,-0.09375c-0.13281,-0.03516 -0.27734,-0.05078 -0.40625,-0.03125z"></path></g></g></svg>