<?xml version="1.0" standalone="no"?>
<!DOCTYPE svg PUBLIC "-//W3C//DTD SVG 1.1//EN" "http://www.w3.org/Graphics/SVG/1.1/DTD/svg11.dtd">
<svg xmlns="http://www.w3.org/2000/svg" xmlns:xlink="http://www.w3.org/1999/xlink" width="95.25" zoomAndPan="magnify" viewBox="0 0 95.25 38.999999" height="39" preserveAspectRatio="xMidYMid meet" version="1.0"><defs><clipPath id="75f20eba45"><path d="M 0 0.152344 L 65 0.152344 L 65 38.820312 L 0 38.820312 Z M 0 0.152344 " clip-rule="nonzero"/></clipPath><clipPath id="2df85971b0"><path d="M 54 0.152344 L 94.503906 0.152344 L 94.503906 38.820312 L 54 38.820312 Z M 54 0.152344 " clip-rule="nonzero"/></clipPath></defs><g clip-path="url(#75f20eba45)"><path fill="#ffffff" d="M 64.246094 27.953125 C 63.324219 24.738281 59.167969 21.765625 56.929688 19.289062 C 53.265625 15.230469 43.761719 3.121094 39.558594 1.136719 C 32.703125 -2.105469 27.082031 2.890625 27.277344 9.898438 L 27.277344 15.765625 L 15.832031 3.496094 C 10.894531 -2.507812 1.316406 -0.113281 0.519531 7.761719 C -0.015625 13.074219 -0.0820312 25.914062 0.519531 31.15625 C 0.898438 34.496094 4.097656 38.289062 7.496094 38.75 C 13.101562 39.5 16.441406 34.140625 13.132812 29.59375 L 4.984375 20.695312 C 4.425781 14.730469 10.425781 21.757812 11.929688 23.347656 C 15.542969 27.171875 22.925781 37.855469 27.839844 38.695312 C 35.003906 39.925781 40.535156 32.078125 36.546875 25.773438 C 35.433594 24.011719 30.808594 20.953125 31.753906 19.019531 C 32.546875 17.519531 33.679688 18.328125 34.703125 19.09375 C 38.875 22.210938 43.992188 30.117188 48.039062 34.175781 C 51.347656 37.5 54.253906 39.925781 59.242188 38.234375 C 63.550781 36.785156 65.46875 32.191406 64.253906 27.945312 Z M 64.246094 27.953125 " fill-opacity="1" fill-rule="nonzero"/></g><g clip-path="url(#2df85971b0)"><path fill="#ffffff" d="M 85.152344 23.800781 C 87.195312 18.492188 80.429688 15.050781 82.371094 9.511719 C 83.769531 5.515625 91.195312 5.398438 93.136719 9.101562 C 95.867188 14.328125 87.515625 19.535156 90.855469 25.558594 C 91.566406 26.84375 92.945312 27.574219 93.679688 29.125 C 96.886719 35.914062 88.867188 41.539062 83.121094 37.515625 C 79.0625 34.675781 78.703125 28.285156 75.617188 24.425781 C 71.039062 18.703125 65.089844 19.59375 59.59375 16.632812 C 51.5625 12.300781 54.820312 0.871094 63.394531 0.179688 C 72.554688 -0.566406 72.324219 8.773438 75.207031 14.910156 C 76.25 17.117188 81.871094 27.058594 85.152344 23.800781 Z M 85.152344 23.800781 " fill-opacity="1" fill-rule="nonzero"/></g></svg>