<!DOCTYPE svg PUBLIC "-//W3C//DTD SVG 1.1//EN" "http://www.w3.org/Graphics/SVG/1.1/DTD/svg11.dtd">
<!-- Uploaded to: SVG Repo, www.svgrepo.com, Transformed by: SVG Repo Mixer Tools -->
<svg fill="#DB2E10" version="1.1" id="Layer_1" xmlns="http://www.w3.org/2000/svg" xmlns:xlink="http://www.w3.org/1999/xlink" viewBox="0 0 503.609 503.609" xml:space="preserve" width="800px" height="800px">
<g id="SVGRepo_bgCarrier" stroke-width="0"/>
<g id="SVGRepo_tracerCarrier" stroke-linecap="round" stroke-linejoin="round"/>
<g id="SVGRepo_iconCarrier"> <g transform="translate(-1)"> <g> <g> <path d="M167.496,82.44v1.494c0,18.205,16.451,33.574,35.924,33.574h99.227c18.65,0,32.718-14.428,32.718-33.574 c0-17.5,3.466-35.974,6.253-50.822l0.839-4.474l1.628-9.468c-12.834-4.188-24.996-8.033-33.817-10.542 c-18.306-5.204-37.485-8.091-57.008-8.595c-0.529-0.05-1.049-0.042-1.57,0.017c-19.297,0.554-38.249,3.441-56.354,8.578 c-8.586,2.443-20.362,6.152-32.827,10.223l1.947,14.26C167.505,49.361,167.496,66.173,167.496,82.44z M192.677,50.276 c0-4.633,3.76-8.393,8.393-8.393h100.721c4.633,0,8.393,3.76,8.393,8.393v41.967c0,4.633-3.76,8.393-8.393,8.393H201.07 c-4.633,0-8.393-3.76-8.393-8.393V50.276z"/> <rect x="209.466" y="58.674" width="83.934" height="25.18"/> <path d="M463.6,392.463l-1.444-16.015c-12.498-88.777-12.498-178.352,0-266.24c6.908-48.59-35.723-63.102-49.672-67.853 c-1.721-0.604-26.263-9.166-52.341-17.878l-2.031,11.734c-2.652,14.151-5.959,31.786-5.959,47.725 c0,28.236-21.747,50.361-49.505,50.361H203.42c-29.066,0-52.711-22.587-52.711-50.361v-1.502c0-15.494,0-31.517-2.753-46.231 l-0.865-4.616l-0.982-7.319c-26.313,8.771-51.225,17.467-52.921,18.063c-23.476,7.999-54.18,23.695-49.781,67.542 c8.863,88.299,8.863,180.585-0.008,267.004l-1.393,15.587c-2.543,28.462,7.059,56.874,26.339,77.967 c19.28,21.084,46.735,33.179,75.306,33.179h218.305c28.571,0,56.026-12.095,75.306-33.179 C456.55,449.337,466.152,420.925,463.6,392.463z M117.136,260.199h50.361c4.633,0,8.393,3.76,8.393,8.393 c0,4.633-3.76,8.393-8.393,8.393h-50.361c-4.633,0-8.393-3.76-8.393-8.393C108.742,263.959,112.502,260.199,117.136,260.199z M108.742,235.018c0-4.633,3.76-8.393,8.393-8.393h67.148c4.633,0,8.393,3.76,8.393,8.393s-3.76,8.393-8.393,8.393h-67.148 C112.502,243.412,108.742,239.652,108.742,235.018z M117.136,293.772h41.967c4.633,0,8.393,3.76,8.393,8.393 s-3.76,8.393-8.393,8.393h-41.967c-4.633,0-8.393-3.76-8.393-8.393S112.502,293.772,117.136,293.772z M117.136,327.346h50.361 c4.633,0,8.393,3.76,8.393,8.393s-3.76,8.393-8.393,8.393h-50.361c-4.633,0-8.393-3.76-8.393-8.393 S112.502,327.346,117.136,327.346z M117.136,360.92h67.148c4.633,0,8.393,3.76,8.393,8.393s-3.76,8.393-8.393,8.393h-67.148 c-4.633,0-8.393-3.76-8.393-8.393S112.502,360.92,117.136,360.92z M201.07,411.281h-83.934c-4.633,0-8.393-3.76-8.393-8.393 s3.76-8.393,8.393-8.393h83.934c4.633,0,8.393,3.76,8.393,8.393S205.703,411.281,201.07,411.281z M201.07,209.838h-83.934 c-4.633,0-8.393-3.76-8.393-8.393s3.76-8.393,8.393-8.393h83.934c4.633,0,8.393,3.76,8.393,8.393S205.703,209.838,201.07,209.838 z M385.726,411.281h-83.934c-4.633,0-8.393-3.76-8.393-8.393s3.76-8.393,8.393-8.393h83.934c4.633,0,8.393,3.76,8.393,8.393 S390.359,411.281,385.726,411.281z M385.726,377.707h-67.148c-4.633,0-8.393-3.76-8.393-8.393s3.76-8.393,8.393-8.393h67.148 c4.633,0,8.393,3.76,8.393,8.393S390.359,377.707,385.726,377.707z M385.726,344.133h-50.361c-4.633,0-8.393-3.76-8.393-8.393 s3.76-8.393,8.393-8.393h50.361c4.633,0,8.393,3.76,8.393,8.393S390.359,344.133,385.726,344.133z M385.726,310.559h-41.967 c-4.633,0-8.393-3.76-8.393-8.393s3.76-8.393,8.393-8.393h41.967c4.633,0,8.393,3.76,8.393,8.393 S390.359,310.559,385.726,310.559z M385.726,276.986h-50.361c-4.633,0-8.393-3.76-8.393-8.393c0-4.633,3.76-8.393,8.393-8.393 h50.361c4.633,0,8.393,3.76,8.393,8.393C394.119,273.225,390.359,276.986,385.726,276.986z M385.726,243.412h-67.148 c-4.633,0-8.393-3.76-8.393-8.393s3.76-8.393,8.393-8.393h67.148c4.633,0,8.393,3.76,8.393,8.393 S390.359,243.412,385.726,243.412z M385.726,209.838h-83.934c-4.633,0-8.393-3.76-8.393-8.393s3.76-8.393,8.393-8.393h83.934 c4.633,0,8.393,3.76,8.393,8.393S390.359,209.838,385.726,209.838z"/> </g> </g> </g> </g>
</svg>